<svg viewBox="0 0 15 15" fill="none" xmlns="http://www.w3.org/2000/svg" x="0" y="0"><g id="Group 1707481449">
<path id="Vector (Stroke)" fill-rule="evenodd" clip-rule="evenodd" d="M0.562,0.562c0.31,-0.311 0.82,-0.303 1.139,0.016l12.721,12.721c0.319,0.319 0.327,0.829 0.016,1.139c-0.31,0.311 -0.82,0.303 -1.139,-0.016l-12.721,-12.721c-0.319,-0.319 -0.327,-0.829 -0.016,-1.139z" fill="currentColor"/>
<path id="Vector (Stroke)_2" fill-rule="evenodd" clip-rule="evenodd" d="M14.439,0.562c0.307,0.307 0.297,0.814 -0.023,1.134l-12.72,12.72c-0.319,0.319 -0.827,0.33 -1.134,0.023c-0.307,-0.307 -0.297,-0.815 0.023,-1.134l12.72,-12.72c0.319,-0.32 0.827,-0.33 1.134,-0.023z" fill="currentColor"/>
</g></svg>