<svg viewBox="0 0 49 23" fill="none" xmlns="http://www.w3.org/2000/svg" x="0" y="0"><g id="Frame 2147227461">
<g id="플레이스 홀더">
<g id="플레이스 홀더_2">
<g id="Group 1707481459">
<path id="Vector" d="M1,11.186c0.311,-0.426 0.596,-0.878 0.939,-1.274c1.19,-1.379 2.55,-2.542 4.118,-3.421c1.288,-0.722 2.649,-1.194 4.115,-1.316c2.059,-0.17 3.945,0.385 5.705,1.474c1.629,1.008 2.978,2.354 4.193,3.858c0.091,0.112 0.181,0.223 0.269,0.338c0.244,0.316 0.25,0.663 0.01,0.986c-0.71,0.956 -1.514,1.816 -2.399,2.593c-1.277,1.12 -2.675,2.024 -4.258,2.585c-1.334,0.472 -2.7,0.647 -4.107,0.473c-1.642,-0.203 -3.119,-0.85 -4.486,-1.798c-1.52,-1.054 -2.788,-2.395 -3.934,-3.87c-0.07,-0.09 -0.111,-0.205 -0.165,-0.308c0,-0.106 0,-0.213 0,-0.32zM2.567,11.317c0.034,0.052 0.049,0.081 0.069,0.105c1.115,1.346 2.343,2.556 3.827,3.45c1.074,0.647 2.218,1.077 3.457,1.198c1.778,0.172 3.418,-0.311 4.968,-1.191c1.359,-0.772 2.531,-1.798 3.59,-2.972c0.16,-0.177 0.309,-0.366 0.477,-0.566c-0.309,-0.35 -0.599,-0.694 -0.905,-1.022c-1.149,-1.235 -2.419,-2.297 -3.937,-2.998c-2.069,-0.955 -4.154,-0.964 -6.251,-0.108c-1.58,0.645 -2.935,1.654 -4.154,2.873c-0.394,0.394 -0.76,0.819 -1.141,1.232z" fill="currentColor"/>
<path id="Vector_2" d="M10.754,7.403c2.078,-0.002 3.762,1.763 3.762,3.942c0,2.179 -1.683,3.945 -3.761,3.943c-2.076,-0.001 -3.753,-1.768 -3.749,-3.952c0.003,-2.172 1.68,-3.932 3.748,-3.933zM10.753,13.731c1.249,0.002 2.276,-1.068 2.28,-2.373c0.003,-1.311 -1.016,-2.394 -2.257,-2.397c-1.262,-0.004 -2.286,1.063 -2.286,2.383c0,1.312 1.017,2.385 2.263,2.387z" fill="currentColor"/>
</g>
</g>
</g>
<g id="Group 1707481449_2">
<path id="Vector (Stroke)_3" fill-rule="evenodd" clip-rule="evenodd" d="M33.562,4.562c0.31,-0.311 0.82,-0.303 1.139,0.016l12.721,12.721c0.319,0.319 0.327,0.829 0.016,1.139c-0.31,0.311 -0.82,0.303 -1.139,-0.016l-12.721,-12.721c-0.319,-0.319 -0.327,-0.829 -0.016,-1.139z" fill="currentColor"/>
<path id="Vector (Stroke)_4" fill-rule="evenodd" clip-rule="evenodd" d="M47.439,4.562c0.307,0.307 0.297,0.814 -0.023,1.134l-12.72,12.72c-0.319,0.319 -0.827,0.33 -1.134,0.023c-0.307,-0.307 -0.297,-0.815 0.023,-1.134l12.72,-12.72c0.319,-0.32 0.827,-0.33 1.134,-0.023z" fill="currentColor"/>
</g>
</g></svg>