<svg viewBox="0 0 49 23" fill="none" xmlns="http://www.w3.org/2000/svg" x="0" y="0"><g id="Frame 2147227461">
<g id="플레이스 홀더_2">
<g id="Group 1707481460">
<g id="Group">
<path id="Vector" d="M5.115,4.445c-0.276,-0.335 -0.759,-0.371 -1.077,-0.08c-0.319,0.29 -0.353,0.797 -0.077,1.131l1.244,1.506c-1.216,0.8 -2.298,1.78 -3.268,2.903c-0.342,0.396 -0.627,0.847 -0.938,1.274v0.32c0.054,0.103 0.095,0.218 0.164,0.308c1.146,1.475 2.413,2.816 3.934,3.871c1.367,0.947 2.844,1.594 4.486,1.798c1.345,0.166 2.654,0.012 3.933,-0.414l1.537,1.86c0.151,0.183 0.363,0.276 0.577,0.276c0.178,0 0.356,-0.064 0.501,-0.196c0.319,-0.29 0.353,-0.797 0.076,-1.132zM8.511,11.004l2.248,2.72c-0.003,0 -0.005,0 -0.007,0c-1.247,-0.002 -2.264,-1.075 -2.264,-2.387c0,-0.113 0.009,-0.224 0.023,-0.333zM9.919,16.062c-1.239,-0.12 -2.384,-0.55 -3.457,-1.198c-1.484,-0.894 -2.712,-2.103 -3.827,-3.449c-0.02,-0.025 -0.035,-0.054 -0.069,-0.105c0.38,-0.413 0.747,-0.838 1.141,-1.233c0.747,-0.746 1.545,-1.413 2.414,-1.966l1.254,1.516c-0.237,0.515 -0.37,1.092 -0.371,1.701c-0.003,2.185 1.673,3.952 3.75,3.953c0.397,0 0.779,-0.065 1.139,-0.184l0.625,0.757c-0.835,0.215 -1.699,0.296 -2.599,0.209z" fill="currentColor"/>
<path id="Vector_2" d="M20.337,10.837c-0.088,-0.113 -0.179,-0.225 -0.269,-0.337c-1.215,-1.505 -2.565,-2.851 -4.193,-3.858c-1.76,-1.089 -3.645,-1.644 -5.705,-1.474c-0.72,0.06 -1.414,0.204 -2.087,0.421l1.004,1.215c1.684,-0.415 3.359,-0.26 5.024,0.51c1.518,0.7 2.788,1.763 3.937,2.998c0.305,0.328 0.596,0.671 0.905,1.021c-0.168,0.2 -0.317,0.389 -0.477,0.567c-0.906,1.004 -1.895,1.899 -3.013,2.621l0.916,1.109c0.544,-0.366 1.066,-0.773 1.568,-1.214c0.886,-0.776 1.69,-1.636 2.399,-2.592c0.241,-0.324 0.234,-0.67 -0.009,-0.987z" fill="currentColor"/>
<path id="Vector_3" d="M14.181,12.968c0.215,-0.497 0.335,-1.049 0.335,-1.63c0,-2.179 -1.685,-3.944 -3.763,-3.942c-0.363,0 -0.714,0.055 -1.046,0.156l1.16,1.404c1.199,0.055 2.169,1.116 2.165,2.395c0,0.072 -0.004,0.143 -0.01,0.214l1.159,1.403z" fill="currentColor"/>
</g>
</g>
</g>
<g id="Group 1707481449">
<path id="Vector (Stroke)" fill-rule="evenodd" clip-rule="evenodd" d="M33.561,4.562c0.311,-0.311 0.821,-0.303 1.14,0.016l12.721,12.721c0.319,0.319 0.326,0.829 0.016,1.139c-0.31,0.311 -0.82,0.303 -1.14,-0.016l-12.72,-12.721c-0.319,-0.319 -0.327,-0.829 -0.017,-1.139z" fill="currentColor"/>
<path id="Vector (Stroke)_2" fill-rule="evenodd" clip-rule="evenodd" d="M47.439,4.562c0.307,0.307 0.297,0.814 -0.023,1.134l-12.72,12.72c-0.319,0.319 -0.827,0.33 -1.134,0.023c-0.307,-0.307 -0.297,-0.815 0.023,-1.134l12.72,-12.72c0.319,-0.32 0.827,-0.33 1.134,-0.023z" fill="currentColor"/>
</g>
</g></svg>