<svg viewBox="0 0 165 83" fill="none" xmlns="http://www.w3.org/2000/svg" x="0" y="0"><defs><clipPath id="clip0_92_6209">
<rect width="165" height="83" fill="white" transform="translate(0, 0)"/>
</clipPath></defs><g id="_ë ˆì ´ì–´_1" clip-path="url(#clip0_92_6209)">
<path id="Vector" d="M3.247,63.114c-1.559,0 -2.338,-0.782 -2.338,-2.347l-0.909,-53.921c0,-1.565 0.779,-2.347 2.273,-2.347h9.805c1.558,0 2.338,0.782 2.273,2.347l-0.325,21.451l19.805,-24.059c0.585,-0.652 1.104,-1.173 1.624,-1.565c0.519,-0.391 1.103,-0.326 1.818,0.131l7.727,5.803c0.714,0.456 1.104,0.978 1.169,1.499c0,0.522 -0.13,1.043 -0.52,1.435l-17.013,18.517l17.598,25.493c0.519,0.717 0.584,1.304 0.195,1.825c-0.39,0.457 -0.91,0.913 -1.624,1.435l-6.299,4.629c-0.779,0.261 -1.363,0.261 -1.818,-0.065c-0.454,-0.326 -0.909,-0.783 -1.493,-1.5l-15.844,-21.777l-5.715,6.129l-0.13,14.475c0,1.564 -0.779,2.347 -2.337,2.347h-7.922z" fill="#FF715B"/>
<path id="Vector_2" d="M124.035,65.396c-1.559,0.196 -2.403,-0.456 -2.598,-2.021l-7.597,-53.399c-0.195,-1.565 0.454,-2.413 1.948,-2.608l9.74,-1.239c1.559,-0.196 2.403,0.456 2.533,2.021l2.337,21.321l16.624,-26.276c0.454,-0.717 0.974,-1.304 1.363,-1.761c0.39,-0.456 1.039,-0.456 1.819,-0.065l8.376,4.76c0.779,0.391 1.234,0.847 1.364,1.369c0.13,0.522 0,1.043 -0.39,1.5l-14.545,20.538l20.649,23.081c0.584,0.652 0.714,1.238 0.39,1.76c-0.325,0.522 -0.78,1.043 -1.429,1.63l-5.714,5.347c-0.714,0.326 -1.364,0.391 -1.818,0.13c-0.455,-0.261 -0.974,-0.717 -1.624,-1.304l-18.376,-19.625l-4.871,6.78l1.624,14.41c0.195,1.565 -0.455,2.412 -2.013,2.608l-7.857,0.978z" fill="#FF715B"/>
<path id="Vector_3" d="M78.701,0c-17.662,0 -32.013,14.409 -32.013,32.144c0,24.319 32.013,50.856 32.013,50.856c0,0 32.013,-26.537 32.013,-50.856c0,-17.735 -14.35,-32.144 -32.013,-32.144zM78.701,45.771c-7.922,0 -14.35,-6.455 -14.35,-14.41c0,-7.954 6.428,-14.409 14.35,-14.409c7.923,0 14.351,6.455 14.351,14.409c0,7.955 -6.428,14.41 -14.351,14.41z" fill="#FF715B"/>
</g></svg>