<svg preserveAspectRatio="none" width="100%" height="100%" overflow="visible" style="display: block;" viewBox="0 0 28.5831 28.8965" fill="none" xmlns="http://www.w3.org/2000/svg">
<g id="Group 1707481453">
<path id="Vector" d="M26.6649 7.16107L25.786 13.0458L23.3021 12.679L24.5402 4.35625C21.9494 1.67372 18.3192 0 14.2916 0C6.39682 0 0 6.39682 0 14.2916C0 22.1863 6.39682 28.5831 14.2916 28.5831C16.2022 28.5831 18.0288 28.201 19.6949 27.5208L26.5349 28.8965L26.6114 21.5061C27.8571 19.3892 28.5831 16.9282 28.5831 14.2916C28.5831 11.6549 27.88 9.26277 26.6649 7.16107ZM23.1111 14.0012L25.5949 14.368L25.251 16.6913L22.7672 16.3245L23.1111 14.0012ZM3.87477 18.8465L3.4315 16.2557L9.57612 15.2163L9.23984 13.214L4.34861 14.047L3.90534 11.4485L15.8201 9.43091L15.6137 8.20046L3.69899 10.2181L3.25573 7.62727L18.5103 5.04408L19.8248 12.786L16.485 13.3515L16.2633 12.037L12.5873 12.6637L12.9236 14.6661L21.2004 13.2598L21.6437 15.8506L3.88242 18.8618L3.87477 18.8465ZM5.57906 22.599L5.13579 20.0082L20.8107 17.3486L21.766 22.9888L18.4262 23.5543L17.9141 20.5126L5.57906 22.6067V22.599Z" fill="var(--fill-0, #FF715B)"/>
<path id="Vector_2" d="M25.5949 5.57149C25.6637 5.6632 25.7325 5.75492 25.8012 5.85427C26.1069 6.27461 26.3974 6.71023 26.6648 7.16879L27.238 3.3093L24.7542 2.94246L24.5402 4.36397C24.7466 4.57796 24.9453 4.7996 25.1363 5.02123C25.2892 5.20465 25.4344 5.38807 25.5796 5.57914L25.5949 5.57149Z" fill="var(--fill-0, #FF715B)"/>
</g>
</svg>
